<!-- Generated by IcoMoon.io -->
<svg version="1.1" xmlns="http://www.w3.org/2000/svg" width="1024" height="1024" viewBox="0 0 1024 1024">
<g id="icomoon-ignore">
</g>
<path fill="none" stroke-linejoin="miter" stroke-linecap="butt" stroke-miterlimit="4" stroke-width="16.5161" stroke="#000" d="M512 8.258c278.209 0 503.742 225.533 503.742 503.742s-225.533 503.742-503.742 503.742c-278.209 0-503.742-225.533-503.742-503.742s225.533-503.742 503.742-503.742z"></path>
<path fill="#000" d="M476.028 287.595l124.317 124.466 1.321-1.321c2.547-2.495 6.039-4.035 9.89-4.035 3.742 0 7.144 1.454 9.673 3.827l-0.008-0.007 14.419 14.419c5.037 5.037 5.203 12.717 1.371 18.069l-0.066 0.116-2.362 3.171 101.739 101.739c9.084 9.084 9.084 23.618 0 32.702l-155.747 155.747c-9.084 9.084-23.618 9.084-32.702 0l-73.447-73.447c-2.567 3.223-6.49 5.271-10.892 5.271-3.851 0-7.335-1.567-9.851-4.098l-42.943-42.943c-2.495-2.547-4.035-6.039-4.035-9.89 0-3.742 1.454-7.144 3.827-9.673l-0.007 0.008 0.099-0.116 1.272-1.255-124.317-124.317c-9.084-9.084-9.084-23.618 0-32.702l155.747-155.747c9.084-9.084 23.618-9.084 32.702 0v0.017zM584.737 427.652l-29.002-28.986c-1.783-1.825-4.269-2.957-7.019-2.957s-5.236 1.132-7.018 2.955l-59.13 59.13c-1.826 1.814-2.956 4.326-2.956 7.102s1.13 5.288 2.956 7.101l28.888 28.888 10.075-10.075-25.848-25.848 53.017-53.182 25.914 25.996 10.124-10.124zM500.901 511.422l-28.969-28.969c-1.779-1.833-4.266-2.971-7.019-2.971s-5.24 1.138-7.017 2.969l-59.295 59.295c-3.964 3.799-3.964 10.075 0 14.039l28.936 28.936 10.174-10.174-25.93-25.831 53.182-53.017 25.831 25.815 10.108-10.091zM393.447 383.059l59.128 59.128c3.964 3.964 10.24 3.964 14.039-0.165l59.128-59.128c1.833-1.748 2.973-4.209 2.973-6.937v0h0.165c0-2.477-0.991-5.12-2.973-7.102l-59.128-59.128c-1.808-1.838-4.322-2.977-7.102-2.977s-5.294 1.139-7.101 2.976l-0.001 0.001-59.128 59.293c-3.964 3.799-3.964 10.075 0 14.039zM309.71 466.795l59.128 59.128c3.964 3.964 10.24 3.964 14.039 0l59.128-59.128c1.834-1.748 2.974-4.21 2.974-6.938 0-0.058-0.001-0.115-0.002-0.172v0.009h0.165c0-2.643-0.991-5.12-2.973-7.102l-59.128-59.128c-1.783-1.825-4.269-2.957-7.019-2.957s-5.236 1.132-7.018 2.955l-59.295 59.295c-3.964 3.799-3.964 10.075 0 14.039zM424.217 611.378l39.011 39.028 159.149-215.37-10.818-10.818-187.342 187.161z"></path>
<path fill="#000" d="M476.028 287.595l124.317 124.466 1.321-1.321c2.547-2.495 6.039-4.035 9.89-4.035 3.742 0 7.144 1.454 9.673 3.827l-0.008-0.007 14.419 14.419c5.037 5.037 5.203 12.717 1.371 18.069l-0.066 0.116-2.362 3.171 101.739 101.739c9.084 9.084 9.084 23.618 0 32.702l-155.747 155.747c-9.084 9.084-23.618 9.084-32.702 0l-73.447-73.447c-2.567 3.223-6.49 5.271-10.892 5.271-3.851 0-7.335-1.567-9.851-4.098l-42.943-42.943c-2.495-2.547-4.035-6.039-4.035-9.89 0-3.742 1.454-7.144 3.827-9.673l-0.007 0.008 0.099-0.116 1.272-1.255-124.317-124.317c-9.084-9.084-9.084-23.618 0-32.702l155.747-155.747c9.084-9.084 23.618-9.084 32.702 0v0.017zM584.737 427.652l-29.002-28.986c-1.783-1.825-4.269-2.957-7.019-2.957s-5.236 1.132-7.018 2.955l-59.13 59.13c-1.826 1.814-2.956 4.326-2.956 7.102s1.13 5.288 2.956 7.101l28.888 28.888 10.075-10.075-25.848-25.848 53.017-53.182 25.914 25.996 10.124-10.124zM500.901 511.422l-28.969-28.969c-1.779-1.833-4.266-2.971-7.019-2.971s-5.24 1.138-7.017 2.969l-59.295 59.295c-3.964 3.799-3.964 10.075 0 14.039l28.936 28.936 10.174-10.174-25.93-25.831 53.182-53.017 25.831 25.815 10.108-10.091zM393.447 383.059l59.128 59.128c3.964 3.964 10.24 3.964 14.039-0.165l59.128-59.128c1.833-1.748 2.973-4.209 2.973-6.937v0h0.165c0-2.477-0.991-5.12-2.973-7.102l-59.128-59.128c-1.808-1.838-4.322-2.977-7.102-2.977s-5.294 1.139-7.101 2.976l-0.001 0.001-59.128 59.293c-3.964 3.799-3.964 10.075 0 14.039zM309.71 466.795l59.128 59.128c3.964 3.964 10.24 3.964 14.039 0l59.128-59.128c1.834-1.748 2.974-4.21 2.974-6.938 0-0.058-0.001-0.115-0.002-0.172v0.009h0.165c0-2.643-0.991-5.12-2.973-7.102l-59.128-59.128c-1.783-1.825-4.269-2.957-7.019-2.957s-5.236 1.132-7.018 2.955l-59.295 59.295c-3.964 3.799-3.964 10.075 0 14.039zM424.217 611.378l39.011 39.028 159.149-215.37-10.818-10.818-187.342 187.161z"></path>
</svg>
