<svg aria-hidden="true" style="position: absolute; width: 0; height: 0; overflow: hidden;" version="1.1" xmlns="http://www.w3.org/2000/svg" xmlns:xlink="http://www.w3.org/1999/xlink">
    <defs>
        <symbol id="icon-chocolate-bar" viewBox="0 0 32 32">
            <path d="M13.511 0.473l8.602 8.613 0.091-0.091c0.18-0.176 0.422-0.276 0.674-0.279s0.496 0.092 0.68 0.264l0.998 0.998c0.349 0.349 0.36 0.88 0.095 1.25l-0.005 0.008-0.163 0.219 7.040 7.040c0.629 0.629 0.629 1.634 0 2.263l-10.777 10.777c-0.629 0.629-1.634 0.629-2.263 0l-5.082-5.082c-0.084 0.106-0.19 0.194-0.311 0.256s-0.253 0.099-0.389 0.106c-0.136 0.008-0.271-0.014-0.398-0.062s-0.242-0.123-0.338-0.22l-2.971-2.971c-0.176-0.18-0.276-0.421-0.279-0.674s0.092-0.496 0.264-0.68l0.007-0.008 0.088-0.087-8.602-8.602c-0.629-0.629-0.629-1.634 0-2.263l10.777-10.777c0.629-0.629 1.634-0.629 2.263 0v0.001zM21.034 10.164l-2.007-2.006c-0.063-0.065-0.139-0.117-0.222-0.152s-0.173-0.053-0.264-0.053-0.18 0.018-0.264 0.053c-0.084 0.035-0.159 0.087-0.222 0.152l-4.091 4.091c-0.065 0.064-0.116 0.141-0.151 0.225s-0.053 0.175-0.053 0.266 0.018 0.182 0.053 0.266c0.035 0.084 0.087 0.161 0.151 0.225l1.999 1.999 0.697-0.697-1.789-1.789 3.669-3.68 1.793 1.799 0.701-0.701zM15.233 15.961l-2.005-2.005c-0.063-0.065-0.139-0.117-0.222-0.152s-0.173-0.053-0.264-0.053-0.18 0.018-0.264 0.053c-0.083 0.035-0.159 0.087-0.222 0.152l-4.103 4.103c-0.274 0.263-0.274 0.697 0 0.971l2.002 2.002 0.704-0.704-1.794-1.787 3.68-3.669 1.787 1.786 0.699-0.698zM7.797 7.078l4.091 4.091c0.274 0.274 0.709 0.274 0.971-0.011l4.091-4.091c0.065-0.062 0.117-0.136 0.152-0.219s0.054-0.171 0.054-0.261h0.011c0-0.171-0.069-0.354-0.206-0.491l-4.091-4.091c-0.064-0.065-0.141-0.117-0.225-0.152s-0.175-0.053-0.266-0.053c-0.091 0-0.182 0.018-0.266 0.053s-0.161 0.087-0.225 0.152l-4.091 4.103c-0.274 0.263-0.274 0.697 0 0.971zM2.003 12.873l4.091 4.091c0.274 0.274 0.709 0.274 0.971 0l4.091-4.091c0.066-0.063 0.119-0.14 0.154-0.224s0.053-0.176 0.051-0.267h0.011c0-0.183-0.069-0.354-0.206-0.491l-4.091-4.091c-0.063-0.065-0.139-0.117-0.222-0.152s-0.173-0.054-0.264-0.054c-0.091 0-0.18 0.018-0.264 0.054s-0.159 0.087-0.222 0.152l-4.103 4.103c-0.274 0.263-0.274 0.697 0 0.971zM9.926 22.877l2.699 2.701 11.013-14.903-0.749-0.749-12.963 12.951z"></path>
            <path d="M13.511 0.473l8.602 8.613 0.091-0.091c0.18-0.176 0.422-0.276 0.674-0.279s0.496 0.092 0.68 0.264l0.998 0.998c0.349 0.349 0.36 0.88 0.095 1.25l-0.005 0.008-0.163 0.219 7.040 7.040c0.629 0.629 0.629 1.634 0 2.263l-10.777 10.777c-0.629 0.629-1.634 0.629-2.263 0l-5.082-5.082c-0.084 0.106-0.19 0.194-0.311 0.256s-0.253 0.099-0.389 0.106c-0.136 0.008-0.271-0.014-0.398-0.062s-0.242-0.123-0.338-0.22l-2.971-2.971c-0.176-0.18-0.276-0.421-0.279-0.674s0.092-0.496 0.264-0.68l0.007-0.008 0.088-0.087-8.602-8.602c-0.629-0.629-0.629-1.634 0-2.263l10.777-10.777c0.629-0.629 1.634-0.629 2.263 0v0.001zM21.034 10.164l-2.007-2.006c-0.063-0.065-0.139-0.117-0.222-0.152s-0.173-0.053-0.264-0.053-0.18 0.018-0.264 0.053c-0.084 0.035-0.159 0.087-0.222 0.152l-4.091 4.091c-0.065 0.064-0.116 0.141-0.151 0.225s-0.053 0.175-0.053 0.266 0.018 0.182 0.053 0.266c0.035 0.084 0.087 0.161 0.151 0.225l1.999 1.999 0.697-0.697-1.789-1.789 3.669-3.68 1.793 1.799 0.701-0.701zM15.233 15.961l-2.005-2.005c-0.063-0.065-0.139-0.117-0.222-0.152s-0.173-0.053-0.264-0.053-0.18 0.018-0.264 0.053c-0.083 0.035-0.159 0.087-0.222 0.152l-4.103 4.103c-0.274 0.263-0.274 0.697 0 0.971l2.002 2.002 0.704-0.704-1.794-1.787 3.68-3.669 1.787 1.786 0.699-0.698zM7.797 7.078l4.091 4.091c0.274 0.274 0.709 0.274 0.971-0.011l4.091-4.091c0.065-0.062 0.117-0.136 0.152-0.219s0.054-0.171 0.054-0.261h0.011c0-0.171-0.069-0.354-0.206-0.491l-4.091-4.091c-0.064-0.065-0.141-0.117-0.225-0.152s-0.175-0.053-0.266-0.053c-0.091 0-0.182 0.018-0.266 0.053s-0.161 0.087-0.225 0.152l-4.091 4.103c-0.274 0.263-0.274 0.697 0 0.971zM2.003 12.873l4.091 4.091c0.274 0.274 0.709 0.274 0.971 0l4.091-4.091c0.066-0.063 0.119-0.14 0.154-0.224s0.053-0.176 0.051-0.267h0.011c0-0.183-0.069-0.354-0.206-0.491l-4.091-4.091c-0.063-0.065-0.139-0.117-0.222-0.152s-0.173-0.054-0.264-0.054c-0.091 0-0.18 0.018-0.264 0.054s-0.159 0.087-0.222 0.152l-4.103 4.103c-0.274 0.263-0.274 0.697 0 0.971zM9.926 22.877l2.699 2.701 11.013-14.903-0.749-0.749-12.963 12.951z"></path>
        </symbol>
        <symbol id="icon-coin" viewBox="0 0 32 32">
            <path d="M15.802 0c-8.691 0-15.802 7.111-15.802 15.802s7.111 15.803 15.802 15.803c8.691 0 15.803-7.111 15.803-15.803s-7.111-15.802-15.803-15.802zM15.802 28.444c-6.953 0-12.642-5.689-12.642-12.642s5.689-12.642 12.642-12.642c6.953 0 12.642 5.689 12.642 12.642s-5.689 12.642-12.642 12.642z"></path>
            <path d="M17.857 14.222h-4.109c-0.79 0-1.422-0.632-1.422-1.422s0.632-1.422 1.422-1.422h5.847c0.948 0 1.58-0.632 1.58-1.58s-0.632-1.58-1.58-1.58h-2.212v-1.422c0-0.948-0.632-1.58-1.58-1.58s-1.58 0.632-1.58 1.58v1.422h-0.474c-2.528 0-4.583 2.054-4.583 4.583s2.054 4.583 4.583 4.583h3.951c0.79 0 1.422 0.632 1.422 1.422s-0.632 1.422-1.422 1.422h-5.847c-0.948 0-1.58 0.632-1.58 1.58s0.632 1.58 1.58 1.58h2.37v1.422c0 0.948 0.632 1.58 1.58 1.58s1.58-0.632 1.58-1.58v-1.422h0.474c2.528 0 4.583-2.054 4.583-4.583s-2.054-4.583-4.583-4.583z"></path>
        </symbol>
        <symbol id="icon-cross" viewBox="0 0 32 32">
            <path stroke-linejoin="round" stroke-linecap="round" stroke-miterlimit="4" stroke-width="2.9091" d="M24 8l-16 16"></path>
            <path stroke-linejoin="round" stroke-linecap="round" stroke-miterlimit="4" stroke-width="2.9091" d="M8 8l16 16"></path>
        </symbol>
        <symbol id="icon-instagram" viewBox="0 0 32 32">
            <path stroke-linejoin="round" stroke-linecap="round" stroke-miterlimit="4" stroke-width="2.6667" d="M22.667 2.667h-13.333c-3.682 0-6.667 2.985-6.667 6.667v13.333c0 3.682 2.985 6.667 6.667 6.667h13.333c3.682 0 6.667-2.985 6.667-6.667v-13.333c0-3.682-2.985-6.667-6.667-6.667z"></path>
            <path stroke-linejoin="round" stroke-linecap="round" stroke-miterlimit="4" stroke-width="2.6667" d="M21.334 15.16c0.165 1.11-0.025 2.243-0.542 3.239s-1.334 1.803-2.336 2.307c-1.002 0.504-2.138 0.68-3.245 0.502s-2.131-0.701-2.924-1.494-1.316-1.816-1.494-2.924c-0.178-1.108-0.003-2.243 0.502-3.245s1.312-1.819 2.308-2.336 2.129-0.706 3.239-0.542c1.132 0.168 2.18 0.695 2.989 1.504s1.337 1.857 1.504 2.989z"></path>
            <path stroke-linejoin="round" stroke-linecap="round" stroke-miterlimit="4" stroke-width="2.6667" d="M23.333 8.667h0.013"></path>
        </symbol>
        <symbol id="icon-logo-chocolate" viewBox="0 0 32 32">
            <path stroke-linejoin="round" stroke-linecap="round" stroke-miterlimit="4" stroke-width="2.6667" d="M22.091 23.038l-14.185-8.864M11.817 7.757l14.185 8.864M11.086 25.023l11.736-19.25M27.633 13.947c-3.040-1.899-4.234-3.384-2.278-6.592l-9.626-6.015-11.736 19.25 14.185 8.864 9.454-15.507z"></path>
        </symbol>
        <symbol id="icon-menu" viewBox="0 0 32 32">
            <path stroke-linejoin="round" stroke-linecap="round" stroke-miterlimit="4" stroke-width="2.963" d="M1.481 15.704h28.444M1.481 6.222h28.444M1.481 25.185h28.444"></path>
        </symbol>
        <symbol id="icon-spoon" viewBox="0 0 32 32">
            <path d="M15.165 13.628c-0.894-1.086-1.345-2.418-1.345-3.751 0-4.941 5.921-9.877 11.842-9.877 3.269 0 5.921 2.653 5.921 5.922 0 5.922-4.934 11.845-9.881 11.845-1.332 0-2.665-0.45-3.75-1.345l-14.581 14.584c-0.771 0.771-2.023 0.771-2.794 0s-0.771-2.023 0-2.795l14.587-14.584z"></path>
        </symbol>
        <symbol id="icon-tick" viewBox="0 0 32 32">
            <path d="M17.399 18.409c-0.21 0.212-0.459 0.379-0.734 0.494s-0.57 0.174-0.868 0.174c-0.298 0-0.593-0.059-0.868-0.174s-0.525-0.282-0.734-0.494l-10.334-10.357c-0.21-0.212-0.459-0.379-0.734-0.494s-0.57-0.174-0.868-0.174c-0.298 0-0.593 0.059-0.868 0.174s-0.525 0.282-0.734 0.494c-0.42 0.423-0.656 0.995-0.656 1.591s0.236 1.168 0.656 1.591l10.357 10.357c1.269 1.268 2.99 1.98 4.784 1.98s3.514-0.712 4.784-1.98l10.357-10.357c0.417-0.42 0.652-0.988 0.655-1.579 0.002-0.297-0.055-0.591-0.168-0.866s-0.278-0.525-0.487-0.736c-0.21-0.212-0.459-0.379-0.734-0.494s-0.57-0.174-0.868-0.174c-0.298 0-0.593 0.059-0.868 0.174s-0.525 0.282-0.734 0.494l-10.334 10.357z"></path>
        </symbol>
        <symbol id="icon-twitter" viewBox="0 0 32 32">
            <path stroke-linejoin="round" stroke-linecap="round" stroke-miterlimit="4" stroke-width="2.6667" d="M30.667 4.013c-1.277 0.901-2.691 1.589-4.187 2.040-0.803-0.923-1.87-1.578-3.057-1.875s-2.437-0.222-3.58 0.214c-1.143 0.436-2.125 1.213-2.812 2.226s-1.047 2.211-1.031 3.435v1.333c-2.343 0.061-4.665-0.459-6.759-1.513s-4.561-3.563-5.908-5.481c0 0-4.667 12.954 7.333 18.287-2.746 1.864-6.017 2.799-9.333 2.667 12 6.667 26.667 0 26.667-15.333-0.001-0.371-0.037-0.742-0.107-1.107 1.361-1.342 2.321-3.036 2.773-4.893z"></path>
        </symbol>
        <symbol id="icon-telephone-recevier" viewBox="0 0 28 32">
            <path d="M26.209 23.222l-0.182-0.227c-1.44-1.821-2.645-2.769-3.678-2.894-0.894-0.122-1.758 0.496-2.676 1.131l-0.981 0.614c-0.097 0.050-0.211 0.097-0.329 0.134l-0.015 0.004c-0.574 0.162-2.022 0.258-2.842-0.493-0.955-0.874-2.436-2.472-3.589-3.87-1.1-1.446-2.31-3.25-2.941-4.385-0.534-0.962-0.087-2.307 0.211-2.806 0.058-0.098 0.136-0.194 0.221-0.29l0.866-0.8c0.013-0.012 0.018-0.028 0.030-0.039 0.008-0.008 0.022-0.006 0.032-0.012 0.781-0.66 1.589-1.338 1.699-2.211 0.13-1.024-0.506-2.41-1.95-4.23l-0.176-0.227c-0.894-1.145-2.246-2.877-4.186-2.59-0.762 0.113-1.443 0.373-2.146 0.814-0.007 0.004-0.011 0.012-0.017 0.016s-0.013 0.005-0.018 0.009l-0.978 0.726c-0.010 0.006-0.016 0.018-0.026 0.026-0.006 0.007-0.018 0.008-0.026 0.016-0.131 0.11-0.242 0.206-0.35 0.304l0.012-0.010c-0.993 0.885-3.142 3.454-1.677 8.205 0.946 3.069 2.898 6.65 5.658 10.377l-0.027 0.022 1.522 1.896 0.012-0.010c2.992 3.539 6.037 6.274 8.827 7.93 1.862 1.106 3.489 1.472 4.827 1.472 1.762 0 3.022-0.633 3.656-1.045l0.397-0.266c0.045-0.031 0.078-0.074 0.11-0.114l0.866-0.653c0.010-0.008 0.016-0.019 0.026-0.028 0.004-0.004 0.011-0.002 0.016-0.006 0.616-0.563 1.043-1.152 1.34-1.851 0.769-1.79-0.608-3.506-1.518-4.641zM26.698 27.424c-0.231 0.543-0.568 1.005-1.056 1.453l-1.289 0.97c-1.168 0.758-3.664 1.696-7.29-0.456-2.79-1.656-5.862-4.456-8.885-8.098l-0.818-1.033c-2.846-3.774-4.848-7.39-5.793-10.453-1.228-3.982 0.319-6.119 1.355-7.042 0.104-0.096 0.21-0.184 0.314-0.272l0.004-0.004 0.939-0.696c0.571-0.361 1.101-0.562 1.71-0.655 1.301-0.196 2.359 1.176 3.136 2.173l0.182 0.232c1.613 2.034 1.768 3.001 1.718 3.396-0.056 0.438-0.722 1-1.31 1.494l-0.083 0.070-0.006 0.010-0.013 0.006-0.894 0.828c-0.006 0.006-0.008 0.012-0.014 0.019s-0.016 0.010-0.022 0.017c-0.128 0.14-0.245 0.294-0.347 0.459l-0.008 0.013c-0.502 0.842-0.977 2.58-0.228 3.926 0.654 1.176 1.898 3.034 3.042 4.534 1.195 1.45 2.72 3.097 3.709 4 0.74 0.676 1.77 0.903 2.662 0.903 0.478 0 0.916-0.066 1.248-0.16 0.174-0.050 0.355-0.123 0.542-0.214 0.011-0.006 0.016-0.015 0.028-0.022 0.006-0.002 0.014-0.001 0.019-0.006l1.039-0.65c0.034-0.022 0.056-0.051 0.084-0.080l0.012 0.014c0.64-0.444 1.37-0.965 1.826-0.889 0.405 0.049 1.323 0.438 2.939 2.478l0.186 0.234c0.787 0.981 1.865 2.325 1.362 3.5z"></path>
        </symbol>
        <symbol id="icon-facebook" viewBox="0 0 19 32">
            <path d="M17.882 0.236c-1.34-0.15-2.894-0.236-4.468-0.236-0.045 0-0.090 0-0.135 0l0.007-0c-5.091 0-8.253 3.243-8.253 8.461v3.543h-4.276c-0.418 0-0.756 0.338-0.757 0.756v5.827c0 0.418 0.339 0.757 0.757 0.757v0h4.276v11.684c0 0.418 0.339 0.757 0.757 0.757v0h6.020c0.418 0 0.757-0.339 0.757-0.757v0-11.684h4.262c0 0 0 0 0 0 0.383 0 0.7-0.285 0.75-0.654l0-0.004 0.752-5.827c0.004-0.030 0.006-0.064 0.006-0.099 0-0.418-0.339-0.757-0.757-0.757-0 0-0 0-0 0h-5.014v-2.965c0-1.468 0.295-2.081 2.131-2.081h3.087c0.418 0 0.757-0.339 0.757-0.757v0-5.214c0-0 0-0 0-0 0-0.383-0.285-0.7-0.655-0.75l-0.004-0zM17.027 5.443l-2.331 0.002c-3.265 0-3.644 2.052-3.644 3.594v3.723c0 0 0 0 0 0 0 0.417 0.338 0.756 0.755 0.757h4.913l-0.559 4.314h-4.353c-0.418 0-0.757 0.339-0.757 0.757v0 11.681h-4.506v-11.681c0-0.418-0.339-0.757-0.757-0.757v0h-4.275v-4.315h4.274c0.418 0 0.757-0.339 0.757-0.757v0-4.3c0-4.35 2.519-6.947 6.739-6.947 1.527 0 2.906 0.083 3.741 0.156v3.773z"></path>
        </symbol>
        <symbol id="icon-instagram1" viewBox="0 0 32 32">
            <path d="M15.591 8.273c-4.042 0-7.318 3.277-7.318 7.318s3.277 7.318 7.318 7.318v0c4.042 0 7.318-3.277 7.318-7.318s-3.277-7.318-7.318-7.318v0zM15.591 21c-2.987 0-5.409-2.422-5.409-5.409s2.422-5.409 5.409-5.409c2.987 0 5.409 2.422 5.409 5.409v0c-0.009 2.984-2.425 5.4-5.408 5.409h-0.001zM22.591 0h-14.001c-4.745 0.001-8.591 3.847-8.591 8.591v14c0 4.745 3.847 8.591 8.591 8.591v0h14c4.745 0 8.591-3.847 8.591-8.591v0-14.001c-0.001-4.745-3.847-8.591-8.591-8.591-0 0-0.001 0-0.001 0h0zM29.272 22.591c0 3.69-2.991 6.681-6.681 6.681v0h-14.001c-3.69 0-6.681-2.991-6.681-6.681v0-14.001c0-3.69 2.991-6.681 6.681-6.681v0h14.001c3.69 0 6.681 2.991 6.681 6.681v14.001zM25.455 7.318c0 0.878-0.712 1.59-1.59 1.59s-1.59-0.712-1.59-1.59v0c0-0.878 0.712-1.59 1.59-1.59s1.59 0.712 1.59 1.59v0z"></path>
        </symbol>
        <symbol id="icon-arrow-left" viewBox="0 0 38 32">
            <path d="M0.625 17.218c-0.386-0.386-0.625-0.919-0.625-1.508s0.239-1.122 0.625-1.508l13.577-13.577c0.39-0.415 0.942-0.673 1.555-0.673 1.178 0 2.133 0.955 2.133 2.133 0 0.613-0.259 1.166-0.673 1.555l-0.001 0.001-12.066 12.068 12.068 12.068c0.402 0.388 0.651 0.932 0.651 1.534 0 1.178-0.955 2.133-2.133 2.133-0.602 0-1.146-0.249-1.534-0.651l-0.001-0.001-13.577-13.577zM37.892 17.843h-35.759v-4.267h35.759v4.267z"></path>
        </symbol>
        <symbol id="icon-arrow-right" viewBox="0 0 38 32">
            <path d="M37.269 14.202c0.386 0.386 0.625 0.919 0.625 1.508s-0.239 1.122-0.625 1.508l-13.579 13.577c-0.383 0.371-0.906 0.599-1.482 0.599-1.178 0-2.133-0.955-2.133-2.133 0-0.576 0.228-1.099 0.599-1.483l-0.001 0.001 12.068-12.068-12.070-12.068c-0.386-0.386-0.624-0.919-0.624-1.508 0-1.178 0.955-2.134 2.134-2.134 0.59 0 1.123 0.239 1.509 0.625l13.577 13.577zM35.759 17.843h-35.759v-4.267h35.759v4.267z"></path>
        </symbol>
        <symbol id="icon-close" viewBox="0 0 32 32">
            <path stroke="currentColor" stroke-linejoin="round" stroke-linecap="round" stroke-miterlimit="4" stroke-width="2.2857" d="M24 8l-16 16M8 8l16 16"></path>
        </symbol>
        <symbol id="icon-checkmark" viewBox="0 0 32 32">
            <path d="M27 4l-15 15-7-7-5 5 12 12 20-20z"></path>
        </symbol>
        <symbol id="icon-burger-menu" viewBox="0 0 32 32">
            <path d="M2 6h28v6h-28zM2 14h28v6h-28zM2 22h28v6h-28z"></path>
        </symbol>
        <symbol id="icon-close-menu" viewBox="0 0 32 32">   
            <path stroke-linejoin="round" stroke-linecap="round" stroke-miterlimit="4" stroke-width="2.2857" d="M22.667 9.333l-13.333 13.333M9.333 9.333l13.333 13.333"></path>
        </symbol>
    </defs>
</svg>
